<svg width="72" height="81" viewBox="0 0 72 81" fill="none" xmlns="http://www.w3.org/2000/svg">
<g clip-path="url(#clip0_27_0)">
<path d="M68.6893 0H2.46309C1.10105 0 0 0.867561 0 1.94077V78.2219C0 79.2951 1.10105 80.1627 2.46309 80.1627H68.6893C70.0514 80.1627 71.1524 79.2951 71.1524 78.2219V1.94077C71.1442 0.867561 70.0432 0 68.6893 0Z" fill="url(#paint0_linear_27_0)"/>
<path d="M64.3422 3.4574H6.80205C5.48079 3.4574 4.40421 4.30568 4.40421 5.35318V68.4217C4.40421 69.4692 5.48079 70.311 6.80205 70.311H64.3422C65.6716 70.311 66.7401 69.4627 66.7401 68.4217V5.35318C66.7401 4.30568 65.6716 3.4574 64.3422 3.4574Z" fill="white"/>
<path d="M47.3371 33.4429H23.8153C22.7387 33.4429 21.8661 32.7553 21.8661 31.907V13.3669C21.8661 12.5186 22.7387 11.831 23.8153 11.831H47.3371C48.4136 11.831 49.2863 12.5186 49.2863 13.3669V31.9006C49.2863 32.7489 48.4136 33.4429 47.3371 33.4429Z" fill="url(#paint1_linear_27_0)"/>
<path d="M35.5762 78.087C37.5762 78.087 39.1974 76.8095 39.1974 75.2337C39.1974 73.6578 37.5762 72.3804 35.5762 72.3804C33.5762 72.3804 31.955 73.6578 31.955 75.2337C31.955 76.8095 33.5762 78.087 35.5762 78.087Z" fill="white"/>
<path d="M56.0721 43.0439H15.0722C14.0364 43.0439 13.1881 42.3755 13.1881 41.5594C13.1881 40.7432 14.0364 40.0749 15.0722 40.0749H56.0639C57.0997 40.0749 57.9479 40.7432 57.9479 41.5594C57.9479 42.3755 57.1079 43.0439 56.0721 43.0439Z" fill="url(#paint2_linear_27_0)"/>
<path opacity="0.6" d="M49.1314 51.2697H14.3871C13.7265 51.2697 13.1963 50.8455 13.1963 50.3314V50.2286C13.1963 49.7081 13.7346 49.2903 14.3871 49.2903H49.1314C49.792 49.2903 50.3222 49.7145 50.3222 50.2286V50.3314C50.3303 50.8455 49.792 51.2697 49.1314 51.2697Z" fill="url(#paint3_linear_27_0)"/>
<path opacity="0.3" d="M42.5169 56.4943H14.2729C13.6775 56.4943 13.1881 56.1087 13.1881 55.6396V55.3568C13.1881 54.8877 13.6775 54.5021 14.2729 54.5021H42.5087C43.1041 54.5021 43.5935 54.8877 43.5935 55.3568V55.6396C43.5935 56.1087 43.1041 56.4943 42.5169 56.4943Z" fill="url(#paint4_linear_27_0)"/>
<path opacity="0.6" d="M46.0729 61.3334H14.3382C13.7101 61.3334 13.1963 60.9285 13.1963 60.4337V60.2538C13.1963 59.7589 13.7101 59.3541 14.3382 59.3541H46.0729C46.7009 59.3541 47.2147 59.7589 47.2147 60.2538V60.4337C47.2147 60.9221 46.7009 61.3334 46.0729 61.3334Z" fill="url(#paint5_linear_27_0)"/>
<path d="M35.6469 22.0394C38.002 22.0394 39.9111 20.515 39.9111 18.6345C39.9111 16.754 38.002 15.2297 35.6469 15.2297C33.2918 15.2297 31.3827 16.754 31.3827 18.6345C31.3827 20.515 33.2828 22.0394 35.6469 22.0394ZM35.6469 23.7418C32.8011 23.7418 27.1185 24.8815 27.1185 27.1467V28.0015C27.1185 28.4716 27.6002 28.8562 28.189 28.8562H43.1226C43.7114 28.8562 44.1931 28.4716 44.1931 28.0015V27.1467C44.1753 24.8886 38.4927 23.7418 35.6469 23.7418Z" fill="white"/>
</g>
<defs>
<linearGradient id="paint0_linear_27_0" x1="4.3104" y1="37.9942" x2="70.923" y2="45.1496" gradientUnits="userSpaceOnUse">
<stop stop-color="#6CBCFC"/>
<stop offset="1" stop-color="#458DFC"/>
</linearGradient>
<linearGradient id="paint1_linear_27_0" x1="19.7397" y1="16.278" x2="47.8676" y2="34.467" gradientUnits="userSpaceOnUse">
<stop stop-color="#B0F4FF"/>
<stop offset="0.0856277" stop-color="#A3F0FE"/>
<stop offset="0.2972" stop-color="#8AE7FD"/>
<stop offset="0.5161" stop-color="#77E1FD"/>
<stop offset="0.7451" stop-color="#6DDDFC"/>
<stop offset="1" stop-color="#69DCFC"/>
</linearGradient>
<linearGradient id="paint2_linear_27_0" x1="57.9519" y1="41.5606" x2="13.1958" y2="41.5606" gradientUnits="userSpaceOnUse">
<stop stop-color="#6CBCFC"/>
<stop offset="1" stop-color="#458DFC"/>
</linearGradient>
<linearGradient id="paint3_linear_27_0" x1="50.328" y1="50.2771" x2="13.1959" y2="50.2771" gradientUnits="userSpaceOnUse">
<stop stop-color="#6CBCFC"/>
<stop offset="1" stop-color="#458DFC"/>
</linearGradient>
<linearGradient id="paint4_linear_27_0" x1="43.5943" y1="55.5018" x2="13.1958" y2="55.5018" gradientUnits="userSpaceOnUse">
<stop stop-color="#6CBCFC"/>
<stop offset="1" stop-color="#458DFC"/>
</linearGradient>
<linearGradient id="paint5_linear_27_0" x1="47.2141" y1="60.3386" x2="13.1959" y2="60.3386" gradientUnits="userSpaceOnUse">
<stop stop-color="#6CBCFC"/>
<stop offset="1" stop-color="#458DFC"/>
</linearGradient>
<clipPath id="clip0_27_0">
<rect width="71.1442" height="80.1562" fill="white"/>
</clipPath>
</defs>
</svg>
